<svg width="24" height="24" viewBox="0 0 472 472" xmlns="http://www.w3.org/2000/svg">

 <g>
  <title>background</title>
  <rect fill="none" id="canvas_background" height="402" width="582" y="-1" x="-1"/>
 </g>
 <g>
  <title>Layer 1</title>
  <path id="svg_1" d="m467.10156,113.816402c-3.03906,-1.80078 -6.79687,-1.87109 -9.89843,-0.17968l-108.29688,59.13281l0,-35.48047c-0.03125,-27.60156 -22.39844,-49.96875 -50,-50l-248.90625,0c-27.60156,0.03125 -49.96875,22.39844 -50,50l0,197.42188c0.03125,27.60156 22.39844,49.96875 50,50l248.90625,0c27.60156,-0.03125 49.96875,-22.39844 50,-50l0,-34.83594l108.30078,59.13281c3.09766,1.69141 6.85938,1.625 9.89453,-0.17578c3.03907,-1.80469 4.89844,-5.07422 4.89844,-8.60156l0,-227.81641c0,-3.53125 -1.86328,-6.79687 -4.89844,-8.59766zm-138.20312,220.89844c-0.01563,16.5625 -13.4375,29.98047 -30,30l-248.89844,0c-16.5625,-0.01953 -29.98047,-13.4375 -30,-30l0,-197.42578c0.01953,-16.55859 13.4375,-29.98047 30,-30l248.90625,0c16.55859,0.01953 29.98047,13.44141 30,30l-0.00781,197.42578zm123.10156,-1.33594l-103.09375,-56.28906l0,-81.53515l103.09375,-56.28516l0,194.10937zm0,0"/>
  <line stroke-linecap="undefined" stroke-linejoin="undefined" id="svg_4" y2="377.453125" x2="531" y1="378.453125" x1="531" stroke-width="60" stroke="#000" fill="none"/>
 </g>
</svg>